<svg fill="#FA5252" xmlns="http://www.w3.org/2000/svg"  viewBox="0 0 64 64" width="64px" height="64px"><path d="M 32 4 C 16.539 4 4 16.539 4 32 C 4 38.26 6.0572969 44.040125 9.5292969 48.703125 L 11.503906 47.167969 L 14.917969 47.167969 L 11.267578 50.816406 C 11.940578 51.557406 12.656297 52.257828 13.404297 52.923828 L 18.453125 47.873047 L 18.453125 51.287109 L 15.646484 54.71875 C 20.248484 58.03875 25.894 60 32 60 C 47.461 60 60 47.461 60 32 C 60 16.539 47.461 4 32 4 z M 41.462891 16.476562 C 41.761327 16.476232 42.061328 16.486281 42.361328 16.503906 L 46.738281 16.761719 L 46.996094 21.138672 C 47.277094 25.939672 45.241531 30.585859 41.519531 33.630859 L 37.740234 36.410156 C 40.129234 43.141156 36.132812 47.166016 36.132812 47.166016 C 35.210813 43.169016 34.01975 41.044922 32.96875 39.919922 L 31.140625 41.263672 C 30.345625 41.814672 29.269937 41.719156 28.585938 41.035156 L 28.261719 40.710938 C 27.867719 41.221938 27.428453 41.727797 26.939453 42.216797 C 23.815453 45.340797 20.017078 46.607922 18.455078 45.044922 C 16.893078 43.482922 18.159203 39.684547 21.283203 36.560547 C 21.772203 36.071547 22.278063 35.633281 22.789062 35.238281 L 22.464844 34.912109 C 21.780844 34.228109 21.685328 33.153375 22.236328 32.359375 L 23.580078 30.529297 C 22.454078 29.479297 20.330984 28.290187 16.333984 27.367188 C 16.333984 27.367188 20.358844 23.369766 27.089844 25.759766 L 29.871094 21.978516 C 32.725781 18.489141 36.986346 16.481514 41.462891 16.476562 z M 38.253906 21.246094 A 4 4 0 0 0 38.253906 29.246094 A 4 4 0 0 0 38.253906 21.246094 z M 23.583984 36.033203 C 23.034984 36.351203 22.493234 36.763578 21.990234 37.267578 C 20.037234 39.220578 19.404172 41.753781 20.576172 42.925781 C 21.748172 44.097781 24.279422 43.463719 26.232422 41.511719 C 26.736422 41.007719 27.14875 40.464969 27.46875 39.917969 L 23.583984 36.033203 z"/></svg>